<?xml version="1.0" standalone="no"?>
<!DOCTYPE svg PUBLIC "-//W3C//DTD SVG 1.0//EN" "http://www.w3.org/TR/2001/REC-SVG-20010904/DTD/svg10.dtd">
<svg xmlns="http://www.w3.org/2000/svg" xmlns:xlink="http://www.w3.org/1999/xlink" id="body_1" width="150" height="150">

<g transform="matrix(0.75 0 0 0.75 0 0)">
    <path transform="matrix(1 0 0 1 0 0)"  d="M96 179.8333C 95.7333 179.5333 95.6667 177 95.7333 172C 95.8333 163.3 96.0333 163.7 91.7666 163.0333C 76.69991 160.6666 61.0666 151.5333 51.2999 139.4C 44.5666 131.0333 39.3666 120.0333 37.6666 110.5667C 36.9666 106.6667 37.4666 106.8667 27.4333 106.6667L27.4333 106.6667L18.8333 106.5L18.7333 97.53329C 18.6666 91.2 18.7666 88.4333 19.0333 88.13329C 19.3333 87.76659 21.0666 87.6666 27.5 87.6666C 34.7333 87.6666 35.6667 87.59989 36.3 87.0999C 36.8 86.6666 37.1667 85.5999 37.6667 82.9999C 39.9334 71.3666 46.3667 59.1999 55 50.1999C 63.9667 40.8666 75.9 34.1999 89.1333 31.1332C 93.5333 30.1332 101.7666 29.3665 102.6 29.8999C 103.1 30.1999 103.1667 31.2666 103.2667 39.8999C 103.3334 47.3999 103.2334 49.6332 102.9334 49.8999C 102.7001 50.0666 100.4667 50.4666 98.00011 50.7666C 92.26681 51.4666 88.53341 52.5333 83.50011 54.9666C 77.60011 57.8333 73.10011 61.1999 68.86681 65.9333C 63.60011 71.86661 60.13351 78.46661 58.13351 86.46661C 57.43351 89.19991 57.23351 90.9333 57.10021 95.6666C 56.90021 102.0999 57.30021 105.4666 58.86691 110.6333C 63.73361 126.6333 79.20021 140.1333 95.80021 142.8333C 101.5669 143.7666 110.2669 143.4 115.7335 142C 123.2002 140.1 132.4335 134.2667 137.9335 128C 144.9002 120.1 149.1668 110.4667 149.8668 100.9667C 150.0001 99.3667 150.2001 97.8667 150.3668 97.6334C 150.5668 97.3001 152.7668 97.2334 160.3668 97.3001C 165.7668 97.3334 170.2668 97.4668 170.4001 97.5334C 171.1001 97.9667 169.9334 108.4001 168.5668 113.6667C 165.4668 125.6334 158.7668 137.1 149.9668 145.4667C 141.5001 153.5334 130.4001 159.6 119.3335 162.2C 114.2335 163.4 114.4668 162.9 114.6002 172C 114.6335 175.9333 114.5669 179.3667 114.4002 179.6C 113.9669 180.2667 96.5335 180.4667 96.0002 179.8333L96.0002 179.8333L96 179.8333z" stroke="none" fill="#853537" fill-rule="nonzero" />
    <path transform="matrix(1 0 0 1 0 0)"  d="M97.6667 179.7C 97.2 179.6667 96.7334 179.4333 96.60001 179.2C 96.46671 179 96.33331 175.8333 96.33331 172.1667C 96.33331 165.5667 96.1666 163.8667 95.6666 164.1667C 95.4999 164.2667 95.2999 164.2 95.1666 164C 95.0666 163.8333 95.1333 163.6667 95.3666 163.6667C 96.5666 163.6667 94.8666 163.0667 92.6666 162.7C 87.7666 161.8667 80.9333 159.7333 76.4999 157.6667C 75.0332 156.9667 73.4999 156.3 73.0999 156.2C 72.7332 156.0667 72.1999 155.7667 71.9999 155.5C 71.7666 155.2333 71.3999 155 71.1332 155C 70.7665 155 68.9332 153.9333 67.8332 153.0667C 67.6665 152.9334 66.6665 152.3 65.6665 151.6667C 64.6665 151.0334 63.76649 150.4334 63.6665 150.3C 63.5665 150.2 62.5332 149.3 61.33319 148.3667C 57.56649 145.3334 53.5999 141.2667 51.06649 137.8334C 50.5332 137.1001 49.79979 136.2001 49.43319 135.8334C 49.09989 135.4667 48.49989 134.6334 48.13319 134.0001C 47.13319 132.2001 45.63319 130.3001 45.33319 130.5001C 45.19989 130.6001 44.99989 130.4334 44.89989 130.1668C 44.76659 129.8668 44.8666 129.7668 45.19989 129.9001C 45.73319 130.1001 45.5332 129.2001 44.83319 128.3334C 44.2999 127.6667 41.99989 122.8001 41.99989 122.3334C 41.99989 122.1334 41.63319 121.1667 41.19989 120.2334C 40.76659 119.2667 40.23319 117.9001 39.99989 117.1667C 39.23319 114.4667 38.73319 112.4334 38.16659 109.9C 37.79989 108.1667 37.46659 107.3333 37.19989 107.4333C 36.99989 107.5333 36.53319 107.4 36.19989 107.1666C 35.76659 106.8333 35.73319 106.6666 36.06659 106.4333C 36.29989 106.3 32.83329 106.1 27.99989 106L27.99989 106L19.49989 105.8333L19.49989 97.43332C 19.49989 92.83332 19.63319 88.93332 19.76659 88.76662C 19.93329 88.63332 23.69989 88.43332 28.16659 88.33332C 32.63329 88.23332 36.39989 88.06662 36.53329 87.93332C 36.66659 87.76662 36.49999 87.66662 36.13329 87.66662C 35.53329 87.63332 35.53329 87.63332 36.09999 87.29992C 36.43329 87.09992 36.86669 86.63322 37.03329 86.23322C 37.33329 85.56651 37.33329 85.59991 37.23329 86.43321C 37.13329 86.93321 37.19999 87.33321 37.36659 87.33321C 37.49989 87.33321 37.73329 86.63322 37.83329 85.76651C 38.09999 83.76651 40.33329 74.93321 40.69999 74.49981C 40.83329 74.33311 41.39999 73.03311 41.93329 71.66651C 42.49999 70.29981 43.46659 68.06651 44.09999 66.73322C 44.76669 65.36652 45.19999 64.06651 45.09999 63.79992C 44.99999 63.49992 45.09999 63.39991 45.39999 63.49992C 45.73329 63.63322 46.33329 62.93322 47.33329 61.26662C 48.13329 59.93332 49.19999 58.29992 49.73329 57.66662C 50.23329 57.03332 50.66659 56.43332 50.66659 56.33332C 50.66659 56.23332 51.29989 55.40002 52.09989 54.53332C 57.09989 48.86662 63.39989 43.23332 66.59989 41.60002C 67.43319 41.16672 67.63319 40.50002 66.79989 40.80002C 66.49989 40.90002 66.39989 40.86672 66.49989 40.66672C 66.63319 40.46672 66.89989 40.36672 67.13319 40.40002C 67.66649 40.53332 69.96648 39.46672 73.26649 37.60002C 74.79979 36.70002 76.19978 36.00002 76.36649 36.00002C 76.66649 36.00002 76.99979 35.86672 78.93318 34.90002C 79.56648 34.60002 80.29988 34.33332 80.59988 34.33332C 80.89989 34.33332 82.43318 33.86662 83.99989 33.30002C 85.56659 32.73332 87.59988 32.13332 88.49989 31.96672C 92.73318 31.16672 99.29989 30.30002 100.6666 30.40002L100.6666 30.40002L102.1666 30.50002L102.3333 39.16673C 102.4333 43.93343 102.4333 48.23343 102.4 48.70003C 102.2667 49.50003 102.1333 49.56673 98.89999 49.96673C 94.4333 50.53343 91.49999 51.16673 91.5667 51.56673C 91.6 51.73343 91.2334 51.83343 90.7334 51.76673C 89.5667 51.60003 87.1334 52.46673 87.2667 53.00003C 87.3334 53.26673 87.1667 53.33333 86.8 53.20003C 86.0667 52.93333 83.1333 53.86673 81.83331 54.80003C 81.3 55.20003 80.2666 55.80003 79.60001 56.10003C 78.00001 56.86673 74.9333 59.30003 75.1667 59.66673C 75.2667 59.80003 75.0334 59.86673 74.7 59.76672C 74.2 59.63342 73.1667 60.46672 70.5333 63.13342C 68.60001 65.10012 66.60001 67.26672 66.10001 67.93343C 65.60001 68.60013 65.10001 69.23343 64.96671 69.33343C 64.86671 69.43343 64.4334 70.13343 64.00001 70.90013C 63.56671 71.70013 63.10001 72.33344 62.93331 72.33344C 62.76661 72.33344 62.50001 72.73344 62.30001 73.23344C 62.10001 73.76674 61.53331 75.06673 61.03331 76.16673C 60.50001 77.26673 59.83331 78.76673 59.50001 79.50003C 58.70001 81.33333 57.33331 85.96673 57.33331 86.86673C 57.33331 87.26673 57.20001 87.66673 57.00001 87.73343C 56.46671 87.90013 56.20001 99.40013 56.63331 103.0001C 57.30001 108.2668 60.60001 118.5668 61.53331 118.2001C 61.80001 118.1001 61.90001 118.2334 61.80001 118.5001C 61.56671 119.0334 62.30001 120.4334 64.10001 122.9001C 64.76672 123.8668 65.33331 124.7334 65.33331 124.8668C 65.33331 125.1001 67.20001 127.2335 69.96661 130.1335C 71.66661 131.9668 75.63332 135.3335 76.06661 135.3335C 76.19991 135.3335 76.66661 135.6335 77.09991 136.0002C 78.39992 137.1335 80.13322 138.0669 86.16661 140.8335C 91.03331 143.0335 96.96661 144.0335 104.1666 143.8668C 108.8666 143.7335 112.7333 143.3668 112.5333 143.0335C 112.4666 142.9335 113.1 142.8002 113.9333 142.7335C 114.8 142.7002 116.5333 142.3335 117.8333 141.9668C 120.6666 141.1335 128.3 137.3668 129.5666 136.1668C 130.0666 135.7001 130.6666 135.3335 130.8999 135.3335C 131.1332 135.3335 131.3332 135.1668 131.3332 134.9668C 131.3332 134.7668 131.0999 134.7001 130.7999 134.8001C 130.4999 134.9001 130.3999 134.8668 130.4999 134.6334C 130.6332 134.4667 130.9999 134.4001 131.3332 134.5001C 132.4665 134.8668 138.6332 129.0001 141.8999 124.4334C 143.5666 122.0667 144.4332 120.5667 146.1666 117.0001C 146.8333 115.6334 147.5333 114.1668 147.7333 113.7668C 147.9333 113.3668 148 112.5335 147.8666 111.9335C 147.7333 111.2002 147.7666 111.0002 147.9666 111.3335C 148.3666 111.9335 148.3333 111.9668 149.2999 108.0668C 149.6666 106.5668 150.0332 105.2001 150.1332 105.0668C 150.1999 104.9335 150.3665 103.4001 150.4999 101.6668C 150.6332 99.93353 150.8332 98.40012 150.9666 98.23352C 151.0999 98.10022 155.3999 98.03352 160.5333 98.06682L160.5333 98.06682L169.8333 98.16682L169.8 101.6335C 169.7667 103.5335 169.5667 105.9335 169.3667 106.9668C 167.4334 115.9668 166.4 119.3335 163.6334 125.2001C 163.3001 125.9334 163.0001 126.7001 163.0001 126.9001C 163.0001 127.1001 162.9001 127.3334 162.7334 127.4001C 162.6001 127.4668 161.9667 128.4668 161.3667 129.6668C 160.2667 131.7668 158.1667 135.0001 157.7 135.3335C 157.5667 135.4335 156.9333 136.3335 156.2667 137.3335C 155 139.3002 148.1334 146.4002 145.6667 148.3335C 143.4667 150.0668 142.9667 150.6335 143.2 151.0668C 143.3667 151.3001 143.2667 151.3668 142.9 151.2335C 142.5667 151.1002 141.7 151.4668 140.7 152.1668C 139.7667 152.8001 138.9 153.3335 138.7667 153.3335C 138.6 153.3335 137.7334 153.8335 136.8334 154.4335C 134.2667 156.1335 127.9334 159.0668 125.9667 159.5002C 125.3334 159.6335 124.7 159.8669 124.5 160.0002C 124.3333 160.1669 123.3 160.5002 122.2667 160.8002C 119.3334 161.6002 116.9334 162.2335 115.8667 162.5002C 115.3 162.6002 115.0334 162.8002 115.2334 162.9335C 115.5001 163.1002 115.4667 163.3668 115.1334 163.8002C 114.7334 164.3669 114.6667 164.4002 114.6667 163.9002C 114.6667 163.6002 114.5334 163.3335 114.3334 163.3335C 114.1334 163.3335 114.0001 166.1335 114.0001 171.1002C 114.0001 175.3335 113.8668 179.0669 113.6668 179.3335C 113.4335 179.7335 112.1001 179.8002 105.9335 179.8335C 101.8335 179.8335 98.1335 179.7668 97.6668 179.7002L97.6668 179.7002L97.6667 179.7z" stroke="none" fill="#CA3135" fill-rule="nonzero" />
    <path transform="matrix(1 0 0 1 0 0)"  d="M151.7667 97.1C 152.0667 97.03329 152.6 97.03329 152.9334 97.1C 153.2334 97.2 152.9667 97.2667 152.3334 97.2667C 151.7001 97.2667 151.4334 97.2 151.7667 97.1z" stroke="none" fill="#CA3135" fill-rule="nonzero" />
    <path transform="matrix(1 0 0 1 0 0)"  d="M66.9333 67.8333C 67.3 67.3 68.1666 66.3 68.86659 65.6666C 69.89989 64.73329 69.83329 64.86659 68.53329 66.3333C 66.3333 68.8 66.09999 69 66.9333 67.8333z" stroke="none" fill="#CA3135" fill-rule="nonzero" />
</g>
</svg>